# xmcd
#
# Track frame offsets:
#	150
#	15483
#	33645
#	50301
#	66649
#	81080
#	95168
#	109354
#	127214
#	139210
#	155355
#	170381
#	183548
#	198850
#
# Disc length: 2921 seconds
# Revision: 2
# Processed by: cddbd v1.5.2PL0 Copyright (c) Steve Scherf et al.
# Submitted via: dBpowerAMP V12.0
#
DISCID=cb0b670e
DTITLE=Ski's Country Trash - Welcome to Trash-Valley
DYEAR=2009
DGENRE=Trashabilly
TTITLE0=Running Man
TTITLE1=That's Alright
TTITLE2=Burning Love
TTITLE3=Don't Shoot Me Down
TTITLE4=Candy
TTITLE5=Country Trash
TTITLE6=Damn Right
TTITLE7=No Other One
TTITLE8=Rose of Ballymore
TTITLE9=Remedy
TTITLE10=White Trash
TTITLE11=Sound of Hellz Angelz
TTITLE12=Join Me
TTITLE13=Home Before Dark
EXTD=
EXTT0=
EXTT1=
EXTT2=
EXTT3=
EXTT4=
EXTT5=
EXTT6=
EXTT7=
EXTT8=
EXTT9=
EXTT10=
EXTT11=
EXTT12=
EXTT13=
PLAYORDER=
